<svg width="120.000000" height="112.757812" viewBox="0 0 120 112.758" fill="none" xmlns="http://www.w3.org/2000/svg" xmlns:xlink="http://www.w3.org/1999/xlink">
	<path id="Vector" d="M115.93 94.13L115.93 82.64L107.56 82.64L107.56 40.44L115.93 40.44L115.93 19.63L108.96 19.63L60 0L11.03 19.63L4.06 19.63L4.06 40.44L12.43 40.44L12.43 82.64L4.06 82.64L4.06 94.13L0 94.13L0 112.75L120 112.75L120 94.13L115.93 94.13L115.93 94.13ZM60 7.68L89.8 19.63L30.19 19.63L60 7.68ZM11.19 33.31L11.19 26.76L108.8 26.76L108.8 33.31L107.56 33.31L88.87 33.31L82.08 33.31L63.39 33.31L56.6 33.31L37.91 33.31L31.11 33.31L12.43 33.31L11.19 33.31ZM100.43 40.44L100.43 82.64L96.01 82.64L96.01 40.44L100.43 40.44ZM88.87 40.44L88.87 82.64L82.08 82.64L82.08 40.44L88.87 40.44ZM74.95 40.44L74.95 82.64L70.53 82.64L70.53 40.44L74.95 40.44ZM63.39 40.44L63.39 82.64L56.6 82.64L56.6 40.44L63.39 40.44ZM49.46 40.44L49.46 82.64L45.04 82.64L45.04 40.44L49.46 40.44ZM37.91 40.44L37.91 82.64L31.11 82.64L31.11 40.44L37.91 40.44ZM23.98 40.44L23.98 82.64L19.56 82.64L19.56 40.44L23.98 40.44ZM11.19 89.77L12.43 89.77L31.12 89.77L37.91 89.77L56.6 89.77L63.39 89.77L82.08 89.77L88.88 89.77L107.56 89.77L108.8 89.77L108.8 94.13L11.19 94.13L11.19 89.77ZM112.86 105.62L7.13 105.62L7.13 101.26L112.86 101.26L112.86 105.62Z" fill="#000000" fill-opacity="1.000000" fill-rule="nonzero"/>
</svg>
