<svg width="104.880341" height="18.955078" viewBox="0 0 104.88 18.9551" fill="none" xmlns="http://www.w3.org/2000/svg">
	<path id="NeoBank" d="M97.56 9.35Q97 9.97 96.47 10.55L96.47 0L92.9 0.57L92.9 18.62L96.47 18.62L96.47 13.1Q97.07 13.58 97.68 14.27Q98.3 14.97 98.85 15.72Q99.4 16.48 99.89 17.24Q100.39 18 100.77 18.62L104.88 18.62Q104.47 17.83 103.86 16.86Q103.26 15.9 102.54 14.94Q101.82 13.98 101.06 13.08Q100.29 12.18 99.57 11.54Q101.01 10.12 102.22 8.79Q103.43 7.45 104.71 6L100.46 6Q100.12 6.4 99.65 6.96Q99.19 7.51 98.66 8.12Q98.13 8.73 97.56 9.35ZM50.98 18.75Q52.33 18.83 53.71 18.83Q57.47 18.83 59.38 17.51Q60.08 17.03 60.52 16.37Q61.29 15.23 61.29 13.58Q61.29 12.47 60.87 11.56Q60.8 11.4 60.71 11.25Q60.14 10.21 58.55 9.62Q59.74 8.9 60.2 7.86Q60.47 7.23 60.47 6.47Q60.47 5.15 59.93 4.25Q59.77 3.99 59.58 3.75Q59.11 3.19 58.43 2.8Q57.47 2.25 56.14 2.02Q54.81 1.79 53.23 1.79Q52.05 1.79 50.68 1.91Q49.31 2.01 48.16 2.22L48.16 18.35Q49.63 18.66 50.98 18.75ZM7.67 12.98Q9.55 15.76 11.15 18.62L14.3 18.62L14.3 1.98L10.58 1.98L10.58 11.8Q9.72 10.51 8.73 9.1Q7.75 7.69 6.75 6.39Q5.75 5.08 4.79 3.93Q3.83 2.78 3.04 1.98L0 1.98L0 18.62L3.69 18.62L3.69 7.72Q5.8 10.19 7.67 12.98ZM53.64 8.51L51.81 8.51L51.81 4.89Q52.24 4.84 52.79 4.83Q53.34 4.82 53.82 4.82Q55.31 4.82 56.08 5.23Q56.36 5.37 56.53 5.6Q56.85 6 56.85 6.64Q56.85 7.26 56.55 7.66Q56.38 7.9 56.1 8.07Q55.36 8.51 53.64 8.51ZM18.29 9.46Q17.78 10.72 17.78 12.4Q17.78 13.79 18.17 15Q18.46 15.87 18.98 16.58Q19.17 16.84 19.39 17.07Q20.22 17.94 21.48 18.45Q22.74 18.95 24.45 18.95Q24.98 18.95 25.51 18.91Q25.65 18.89 25.79 18.88Q26.46 18.81 27.05 18.7Q27.64 18.59 28.12 18.45Q28.6 18.31 28.89 18.16L28.41 15.26Q27.81 15.52 26.86 15.7Q25.91 15.88 24.93 15.88Q23.39 15.88 22.48 15.24Q22.01 14.9 21.75 14.45Q21.51 14.02 21.45 13.48L29.56 13.48Q29.59 13.19 29.61 12.82Q29.63 12.45 29.63 12.14Q29.63 8.94 28.07 7.3Q27.69 6.91 27.25 6.6Q25.87 5.66 23.83 5.66Q23.42 5.66 23.02 5.71Q22.29 5.81 21.58 6.09Q21.13 6.27 20.72 6.52Q20.14 6.87 19.64 7.36Q18.81 8.2 18.29 9.46ZM44.25 15.01Q44.68 13.77 44.68 12.28Q44.68 10.79 44.22 9.57Q43.77 8.34 42.95 7.48Q42.74 7.25 42.5 7.05Q41.84 6.49 41 6.14Q39.86 5.66 38.49 5.66Q37.16 5.66 36.03 6.12Q36.02 6.13 36 6.14Q35.25 6.45 34.63 6.94Q34.32 7.19 34.03 7.48Q33.21 8.34 32.74 9.57Q32.27 10.79 32.27 12.28Q32.27 13.77 32.73 15.01Q33.19 16.24 34 17.12Q34.25 17.39 34.54 17.62Q35.17 18.14 35.96 18.48Q37.1 18.95 38.49 18.95Q39.91 18.95 41.04 18.48Q41.83 18.14 42.46 17.62Q42.75 17.39 43 17.12Q43 17.11 43.01 17.11Q43.82 16.23 44.25 15.01ZM71.7 6.02Q70.65 5.66 69.07 5.66Q68.44 5.66 67.82 5.72Q67.21 5.78 66.66 5.86Q66.11 5.94 65.64 6.05Q65.18 6.16 64.86 6.26L65.32 9.14Q65.97 8.9 66.86 8.77Q66.98 8.75 67.1 8.73Q67.87 8.63 68.66 8.63Q70.03 8.63 70.58 9.18Q70.71 9.31 70.81 9.46Q71.13 9.95 71.13 10.65L71.13 10.98Q70.79 10.89 70.25 10.83Q69.71 10.77 69.02 10.77Q67.99 10.77 67.03 10.98Q66.07 11.17 65.32 11.63Q65 11.83 64.73 12.09Q64.38 12.42 64.13 12.86Q63.69 13.62 63.69 14.73Q63.69 15.88 64.07 16.67Q64.27 17.09 64.58 17.43Q64.84 17.72 65.18 17.95Q65.9 18.45 66.89 18.66Q67.89 18.88 69.11 18.88Q71.06 18.88 72.42 18.65Q73.79 18.42 74.56 18.26L74.56 10.82Q74.56 9.64 74.3 8.68Q74.09 7.9 73.63 7.32Q73.52 7.18 73.4 7.05Q72.76 6.38 71.7 6.02ZM80.63 5.93Q79.19 6.16 78.28 6.42L78.28 18.62L81.86 18.62L81.86 8.87Q82.19 8.83 82.62 8.79Q83.06 8.75 83.44 8.75Q84.52 8.75 85 9.29Q85.08 9.38 85.14 9.48Q85.6 10.19 85.6 11.92L85.6 18.62L89.18 18.62L89.18 11.49Q89.18 10.19 88.91 9.14Q88.66 8.12 88.06 7.37Q88.04 7.34 88.02 7.31Q87.4 6.55 86.33 6.12Q85.27 5.7 83.66 5.7Q82.07 5.7 80.63 5.93ZM26.1 10.47Q26.16 10.75 26.18 11.03L21.45 11.03Q21.52 10.58 21.68 10.13Q21.84 9.69 22.12 9.35Q22.14 9.33 22.17 9.3Q22.44 9 22.84 8.81Q23.27 8.61 23.87 8.61Q24.5 8.61 24.92 8.83Q25.34 9.04 25.62 9.38Q25.68 9.45 25.73 9.53Q25.92 9.81 26.02 10.14Q26.07 10.31 26.1 10.47ZM40.37 9.67Q41.03 10.62 41.03 12.28Q41.03 13.93 40.37 14.91Q40.07 15.35 39.66 15.59Q39.16 15.88 38.49 15.88Q37.83 15.88 37.33 15.6Q36.9 15.35 36.59 14.91Q35.92 13.93 35.92 12.28Q35.92 10.62 36.59 9.67Q36.89 9.26 37.29 9.02Q37.8 8.73 38.49 8.73Q39.18 8.73 39.7 9.03Q40.09 9.27 40.37 9.67ZM51.81 15.66L51.81 11.37L54.16 11.37Q55.77 11.37 56.63 11.86Q56.94 12.04 57.14 12.3Q57.5 12.77 57.5 13.51Q57.5 14.3 57.11 14.78Q56.87 15.1 56.47 15.28Q55.43 15.76 53.75 15.76Q53.18 15.76 52.7 15.74Q52.22 15.71 51.81 15.66ZM70.36 16.1Q69.88 16.12 69.35 16.12Q68.37 16.12 67.81 15.8Q67.66 15.71 67.55 15.59Q67.24 15.25 67.24 14.63Q67.24 14.2 67.43 13.91Q67.48 13.84 67.53 13.78Q67.7 13.59 67.96 13.46Q68.3 13.29 68.74 13.23Q69.18 13.17 69.69 13.17Q70.05 13.17 70.48 13.22Q70.91 13.27 71.13 13.31L71.13 16.03Q70.84 16.07 70.36 16.1Z" fill="#B4387A" fill-opacity="1.000000" fill-rule="evenodd"/>
</svg>
