<svg id="gradient" height='30' width='30' viewBox="0 0 64 64" xmlns="http://www.w3.org/2000/svg" xmlns:xlink="http://www.w3.org/1999/xlink"><linearGradient id="linear-gradient" gradientUnits="userSpaceOnUse" x1="4" x2="60" y1="32" y2="32"><stop offset="0" stop-color="#ffa68d"/><stop offset="1" stop-color="#fd3a84"/></linearGradient><path d="m32 4a28 28 0 1 0 28 28 28.03075 28.03075 0 0 0 -28-28zm-17 40a1.003 1.003 0 0 1 1-1h32a1 1 0 0 1 0 2h-32a1.003 1.003 0 0 1 -1-1zm0-12a1.003 1.003 0 0 1 1-1h32a1 1 0 0 1 0 2h-32a1.003 1.003 0 0 1 -1-1zm33-11h-32a1 1 0 0 1 0-2h32a1 1 0 0 1 0 2z" fill="url(#linear-gradient)"/></svg>