<svg width="20.342773" height="28.229492" viewBox="0 0 20.3428 28.2295" fill="none" xmlns="http://www.w3.org/2000/svg" xmlns:xlink="http://www.w3.org/1999/xlink">
	<path id="Vector" d="M17.27 0.21L1.04 9.66C0.36 10.06 -0.04 10.95 0 11.98C0.04 13.02 0.51 13.99 1.22 14.52L6.9 18.69L11.52 11.67C11.73 11.34 12.12 11.34 12.39 11.67C12.66 11.99 12.71 12.51 12.5 12.83L7.88 19.86L11.66 26.9C12.14 27.79 12.92 28.29 13.69 28.22C14.46 28.14 15.07 27.5 15.28 26.54L20.26 3.76C20.49 2.72 20.21 1.59 19.54 0.8C18.88 0 18 -0.22 17.27 0.21Z" fill="#FFFFFF" fill-opacity="1.000000" fill-rule="nonzero"/>
</svg>
